<?xml version="1.0" encoding="utf-8"?>
<!-- Generator: Adobe Illustrator 22.0.1, SVG Export Plug-In . SVG Version: 6.00 Build 0)  -->
<svg version="1.1" xmlns="http://www.w3.org/2000/svg" xmlns:xlink="http://www.w3.org/1999/xlink" x="0px" y="0px"
	 viewBox="0 0 1080 1080" style="enable-background:new 0 0 1080 1080;" xml:space="preserve">
<style type="text/css">
	.st0{display:none;}
	.st1{display:inline;}
	.st2{fill:#FFFFFF;}
	.st3{fill:#5DA4B3;}
</style>
<g id="BG" class="st0">
	<rect class="st1" width="1080" height="1080"/>
</g>
<g id="logo">
	<path class="st2" d="M102.5,707.1c-2.3,0-4.5-0.7-6.5-2.1c-2-1.4-3-3.4-3-6.2V482.6c0-2.7,1.1-4.7,3.2-5.9c2.1-1.2,4.6-1.7,7.3-1.7
		c2.5,0,4.9,0.6,7.1,1.7c2.2,1.2,3.3,3.1,3.3,5.9v205.1h90.5c2.5,0,4.3,1,5.4,3c1.1,2,1.6,4.2,1.6,6.5c0,2.5-0.5,4.8-1.6,6.8
		c-1.1,2-2.9,3-5.4,3H102.5z"/>
	<path class="st2" d="M320.3,706.3c-10.8,0-20.8-2.8-29.9-8.4c-9.1-5.6-16.5-13-22.1-22.2c-5.6-9.2-8.4-19.1-8.4-29.7v-34.6
		c0-10.6,2.7-20.4,8.3-29.4c5.5-9,12.8-16.2,21.9-21.8c9.1-5.5,19.2-8.3,30.2-8.3c10.8,0,20.8,2.7,30,8.1
		c9.2,5.4,16.6,12.5,22.1,21.4c5.5,8.9,8.3,18.8,8.3,29.9V646c0,10.4-2.8,20.2-8.3,29.5c-5.5,9.3-12.9,16.8-22.1,22.4
		C341.1,703.5,331.1,706.3,320.3,706.3z M320.3,687.3c7.4,0,14.1-2,20-5.9c5.9-3.9,10.7-9,14.3-15.4c3.6-6.4,5.4-13,5.4-20v-34.6
		c0-6.8-1.7-13.2-5.2-19.4c-3.5-6.1-8.3-11.2-14.3-15.1c-6-3.9-12.8-5.9-20.2-5.9c-7.4,0-14.1,2-20,5.9c-5.9,3.9-10.7,8.9-14.3,15.1
		c-3.6,6.1-5.4,12.6-5.4,19.4V646c0,7,1.8,13.7,5.4,20c3.6,6.4,8.4,11.5,14.4,15.4C306.5,685.3,313.1,687.3,320.3,687.3z"/>
	<path class="st2" d="M475,706.6c-2.1,0-3.9-0.5-5.2-1.4c-1.4-1-2.5-2.6-3.3-4.9l-49.5-133.1c-0.2-0.6-0.5-1.4-0.8-2.4
		c-0.3-1-0.5-1.7-0.5-2.4c0-1.7,0.6-3.2,1.9-4.6c1.3-1.4,2.9-2.5,4.8-3.3c1.9-0.8,3.8-1.3,5.7-1.3c1.5,0,3,0.4,4.4,1.3
		c1.5,0.8,2.4,2,2.9,3.5L476,671.1l32.7-103.2c0.6-1.9,1.6-3.3,3-4.1c1.4-0.8,3.1-1.3,5.2-1.3c1.9,0,3.6,0.4,5.1,1.3
		c1.5,0.8,2.5,2.2,3.2,4.1l31.4,104.5L598.2,558c0.8-3.2,3.2-4.8,7-4.8c1.9,0,3.8,0.4,5.7,1.1c1.9,0.7,3.5,1.8,4.8,3.2
		c1.3,1.4,1.9,3,1.9,4.9c0,0.6-0.2,1.5-0.5,2.5c-0.3,1.1-0.6,1.8-0.8,2.2l-49.5,134.3c-0.6,1.9-1.7,3.2-3.3,4
		c-1.6,0.7-3.2,1.1-4.9,1.1c-2.1,0-3.9-0.4-5.2-1.3c-1.4-0.8-2.5-2-3.3-3.5l-33-103.2l-32.7,101.6c-0.6,2.1-1.8,3.7-3.5,4.8
		C479,706.1,477.1,706.6,475,706.6z"/>
	<path class="st2" d="M96.8,914.6c-0.9,0-1.7-0.3-2.4-1c-0.7-0.7-1-1.4-1-2.2v-121c0-1,0.3-1.7,1-2.2c0.7-0.5,1.4-0.8,2.4-0.8
		c1.1,0,1.9,0.3,2.6,0.8c0.7,0.5,1,1.3,1,2.2v9.5c2.2-3.5,5.6-6.6,10-9.4c4.4-2.8,9.9-4.2,16.5-4.2c6.4,0,12.4,1.5,17.8,4.4
		c5.4,2.9,9.7,6.8,12.9,11.7c3.2,4.8,4.8,10.3,4.8,16.2v21.9c0,5.6-1.6,10.9-4.8,16c-3.2,5-7.5,9.1-12.8,12.1
		c-5.3,3.1-11.2,4.6-17.5,4.6c-6.1,0-11.5-1.3-16.3-4c-4.8-2.7-8.3-5.9-10.6-9.6v51.9c0,0.8-0.3,1.6-1,2.2
		C98.7,914.3,97.9,914.6,96.8,914.6z M127.6,866.9c5,0,9.6-1.3,13.8-3.8c4.2-2.5,7.6-5.8,10.2-9.9c2.6-4.1,3.9-8.3,3.9-12.7v-21.9
		c0-4.4-1.3-8.6-3.9-12.6s-6-7.2-10.2-9.7c-4.2-2.5-8.9-3.8-14-3.8c-4.5,0-8.8,1-12.9,3.1c-4.1,2.1-7.5,5.1-10.2,8.9
		c-2.6,3.8-3.9,8.5-3.9,14v28.5c0,2,1.2,4.6,3.6,7.7c2.4,3.1,5.6,5.9,9.8,8.3C117.8,865.6,122.5,866.9,127.6,866.9z"/>
	<path class="st2" d="M204.8,872.1c-0.9,0-1.7-0.3-2.4-1c-0.7-0.7-1-1.4-1-2.2v-78.4c0-1,0.3-1.7,1-2.2c0.7-0.5,1.4-0.8,2.4-0.8
		c1.1,0,1.9,0.3,2.6,0.8c0.7,0.5,1,1.3,1,2.2v9.5c1.6-2.4,3.6-4.6,6.1-6.6c2.5-2,5.5-3.7,9.1-5c3.6-1.3,7.6-2,12.2-2h7.3
		c0.9,0,1.7,0.3,2.4,0.9c0.7,0.6,1,1.4,1,2.3c0,0.8-0.3,1.6-1,2.2c-0.7,0.6-1.4,0.9-2.4,0.9h-7.3c-4.6,0-9,1-13.2,3.1
		c-4.2,2.1-7.6,5.1-10.3,8.9c-2.6,3.8-3.9,8.5-3.9,14v50.3c0,0.8-0.3,1.6-1,2.2C206.7,871.7,205.9,872.1,204.8,872.1z"/>
	<path class="st2" d="M304.3,873.1c-6.2,0-11.9-1.5-17.3-4.6s-9.6-7.1-12.8-12c-3.2-5-4.8-10.3-4.8-16.1v-21.9
		c0-5.7,1.6-11.1,4.7-16c3.2-4.9,7.4-8.9,12.7-11.8c5.3-3,11.2-4.5,17.5-4.5c6.3,0,12.1,1.5,17.5,4.4c5.3,2.9,9.6,6.8,12.8,11.7
		c3.2,4.8,4.8,10.3,4.8,16.2v21.9c0,5.6-1.6,10.9-4.8,16c-3.2,5-7.5,9.1-12.8,12.1S310.6,873.1,304.3,873.1z M304.3,866.9
		c5.3,0,10-1.3,14.2-3.8c4.2-2.5,7.6-5.8,10.2-9.9c2.6-4.1,3.9-8.3,3.9-12.7v-21.9c0-4.4-1.3-8.6-3.8-12.6
		c-2.5-3.9-5.9-7.2-10.2-9.7c-4.3-2.5-9.1-3.8-14.3-3.8c-5.3,0-10,1.3-14.2,3.8c-4.2,2.5-7.6,5.7-10.1,9.7
		c-2.5,3.9-3.8,8.1-3.8,12.6v21.9c0,4.4,1.2,8.7,3.8,12.7c2.5,4.1,5.9,7.4,10.2,9.9C294.5,865.6,299.2,866.9,304.3,866.9z"/>
	<path class="st2" d="M410.2,873.1c-6.2,0-12-1.5-17.4-4.6c-5.4-3.1-9.7-7.1-12.9-12.1c-3.2-5-4.8-10.3-4.8-16v-21.9
		c0-6,1.6-11.4,4.8-16.2c3.2-4.8,7.5-8.7,12.9-11.7c5.4-2.9,11.3-4.4,17.8-4.4c6.6,0,12.1,1.4,16.6,4.2c4.5,2.8,7.8,6,9.9,9.4v-62.6
		c0-1,0.4-1.7,1.1-2.2c0.7-0.5,1.5-0.8,2.5-0.8c1.1,0,1.9,0.3,2.5,0.8c0.6,0.5,0.9,1.3,0.9,2.2v131.6c0,0.8-0.3,1.6-0.9,2.2
		c-0.6,0.7-1.4,1-2.5,1c-0.9,0-1.7-0.3-2.5-1c-0.7-0.7-1.1-1.4-1.1-2.2v-9.3c-2.1,3.7-5.6,6.9-10.5,9.6
		C421.7,871.8,416.2,873.1,410.2,873.1z M409.8,866.9c5.3,0,9.9-1.2,14-3.7c4.1-2.5,7.3-5.2,9.7-8.3c2.4-3.1,3.6-5.7,3.6-7.7v-28.5
		c0-5.5-1.3-10.2-3.9-14c-2.6-3.8-6-6.8-10.2-8.9c-4.1-2.1-8.5-3.1-12.9-3.1c-5.1,0-9.8,1.3-14,3.8c-4.2,2.5-7.6,5.7-10.2,9.7
		c-2.6,3.9-3.9,8.1-3.9,12.6v21.9c0,4.4,1.3,8.7,3.9,12.7c2.6,4.1,6,7.4,10.2,9.9C400.1,865.6,404.8,866.9,409.8,866.9z"/>
	<path class="st2" d="M521.1,873.1c-6.5,0-12.3-1.5-17.7-4.5c-5.3-3-9.6-7-12.7-11.9c-3.2-5-4.7-10.3-4.7-15.9v-50.3
		c0-0.8,0.4-1.6,1.1-2.2c0.7-0.7,1.5-1,2.5-1c0.9,0,1.7,0.3,2.4,1c0.7,0.7,1,1.4,1,2.2v50.3c0,4.4,1.2,8.6,3.8,12.6
		c2.5,3.9,5.9,7.2,10.2,9.7c4.3,2.5,9,3.8,14.3,3.8c5.3,0,10-1.2,14.2-3.7c4.2-2.5,7.6-5.7,10.1-9.7c2.5-4,3.8-8.2,3.8-12.7v-50.4
		c0-0.8,0.4-1.6,1.1-2.2c0.7-0.6,1.5-0.9,2.5-0.9c1.1,0,1.9,0.3,2.5,0.9c0.6,0.6,0.9,1.3,0.9,2.2v50.4c0,5.7-1.6,11.1-4.7,16
		c-3.2,4.9-7.4,8.9-12.7,11.8C533.3,871.6,527.4,873.1,521.1,873.1z"/>
	<path class="st2" d="M630.9,873.1c-8.2,0-14.9-1.4-20.2-4.3c-5.3-2.9-9.3-6.8-11.9-11.7c-2.6-4.9-3.9-10.5-3.9-16.7v-21.5
		c0-6.1,1.3-11.6,3.9-16.6c2.6-5,6.5-8.9,11.9-11.8c5.4-2.9,12.2-4.3,20.3-4.3c5.3,0,9.8,0.6,13.7,1.9c3.9,1.3,6.9,2.7,9,4.3
		c2.1,1.6,3.2,3.1,3.2,4.4c0,0.5-0.2,1-0.5,1.4c-0.3,0.5-0.8,0.9-1.3,1.2c-0.5,0.3-1.1,0.4-1.8,0.4c-1.1,0-2.3-0.6-3.8-1.9
		c-1.5-1.3-3.7-2.5-6.4-3.7c-2.8-1.2-6.8-1.8-12-1.8c-9.5,0-16.7,2.4-21.7,7.1c-5,4.7-7.5,11.2-7.5,19.3v21.5
		c0,8.1,2.5,14.6,7.5,19.3c5,4.7,12.3,7.1,21.9,7.1c5.5,0,9.8-0.6,12.7-1.9c3-1.3,5.2-2.5,6.7-3.7c1.5-1.2,2.9-1.8,4-1.8
		c0.7,0,1.2,0.2,1.7,0.4c0.5,0.3,0.9,0.7,1.2,1.1c0.3,0.4,0.5,0.9,0.5,1.5c0,1.2-1.1,2.6-3.3,4.3c-2.2,1.7-5.3,3.1-9.3,4.4
		C641.4,872.5,636.5,873.1,630.9,873.1z"/>
	<path class="st2" d="M721.5,872.1c-9.3,0-16.5-2-21.4-5.9c-4.9-3.9-7.4-10.3-7.4-19v-98.2c0-1,0.4-1.7,1.1-2.2
		c0.7-0.5,1.5-0.8,2.3-0.8c0.9,0,1.7,0.3,2.5,0.8c0.7,0.5,1.1,1.3,1.1,2.2v38.4h26.7c0.9,0,1.7,0.3,2.4,0.9c0.7,0.6,1,1.4,1,2.3
		c0,0.8-0.3,1.6-1,2.2c-0.7,0.6-1.4,0.9-2.4,0.9h-26.7v53.5c0,6.8,1.6,11.6,4.9,14.4c3.3,2.8,8.9,4.2,17,4.2h4.5
		c0.9,0,1.7,0.3,2.4,0.8c0.7,0.5,1,1.3,1,2.2c0,0.8-0.3,1.6-1,2.2c-0.7,0.7-1.5,1-2.4,1H721.5z"/>
	<path class="st2" d="M765.9,759.3c-1.7,0-3.2-0.6-4.4-1.7c-1.3-1.1-1.9-2.5-1.9-4c0-1.6,0.6-2.9,1.9-3.9c1.3-1.1,2.7-1.6,4.4-1.6
		c1.7,0,3.2,0.5,4.3,1.6s1.8,2.4,1.8,3.9c0,1.6-0.6,2.9-1.8,4C769.1,758.8,767.6,759.3,765.9,759.3z M765.9,872.1
		c-0.9,0-1.7-0.3-2.4-1c-0.7-0.7-1-1.4-1-2.2v-78.4c0-1,0.3-1.7,1-2.2c0.7-0.5,1.4-0.8,2.4-0.8c1.1,0,1.9,0.3,2.6,0.8
		c0.7,0.5,1,1.3,1,2.2v78.4c0,0.8-0.3,1.6-1,2.2C767.8,871.7,767,872.1,765.9,872.1z"/>
	<path class="st2" d="M843.5,873.1c-6.2,0-11.9-1.5-17.3-4.6s-9.6-7.1-12.8-12c-3.2-5-4.8-10.3-4.8-16.1v-21.9
		c0-5.7,1.6-11.1,4.7-16c3.2-4.9,7.4-8.9,12.7-11.8c5.3-3,11.2-4.5,17.5-4.5c6.3,0,12.1,1.5,17.5,4.4c5.3,2.9,9.6,6.8,12.8,11.7
		c3.2,4.8,4.8,10.3,4.8,16.2v21.9c0,5.6-1.6,10.9-4.8,16c-3.2,5-7.5,9.1-12.8,12.1C855.7,871.6,849.8,873.1,843.5,873.1z
		 M843.5,866.9c5.3,0,10-1.3,14.2-3.8c4.2-2.5,7.6-5.8,10.2-9.9c2.6-4.1,3.8-8.3,3.8-12.7v-21.9c0-4.4-1.3-8.6-3.8-12.6
		c-2.5-3.9-5.9-7.2-10.2-9.7c-4.3-2.5-9.1-3.8-14.3-3.8c-5.3,0-10,1.3-14.2,3.8c-4.2,2.5-7.6,5.7-10.1,9.7
		c-2.5,3.9-3.8,8.1-3.8,12.6v21.9c0,4.4,1.3,8.7,3.8,12.7c2.5,4.1,5.9,7.4,10.2,9.9C833.7,865.6,838.4,866.9,843.5,866.9z"/>
	<path class="st2" d="M921.1,872.1c-0.9,0-1.7-0.3-2.4-1c-0.7-0.7-1-1.4-1-2.2v-78.4c0-1,0.3-1.7,1-2.2c0.7-0.5,1.4-0.8,2.4-0.8
		c1.1,0,1.9,0.3,2.6,0.8c0.7,0.5,1,1.3,1,2.2v9.5c2.2-3.5,5.6-6.6,10-9.4c4.4-2.8,9.9-4.2,16.5-4.2c6.4,0,12.4,1.5,17.8,4.4
		c5.4,2.9,9.7,6.8,12.9,11.7c3.2,4.8,4.8,10.3,4.8,16.2v50.3c0,1.1-0.4,1.9-1.1,2.4c-0.7,0.5-1.5,0.8-2.5,0.8
		c-0.8,0-1.5-0.3-2.3-0.8c-0.7-0.5-1.1-1.3-1.1-2.4v-50.3c0-4.4-1.3-8.6-3.8-12.6s-6-7.2-10.2-9.7c-4.2-2.5-8.9-3.8-14-3.8
		c-4.5,0-8.8,1-12.9,3.1c-4.1,2.1-7.5,5.1-10.2,8.9c-2.6,3.8-3.9,8.5-3.9,14v50.3c0,0.8-0.3,1.6-1,2.2
		C923,871.7,922.2,872.1,921.1,872.1z"/>
	<circle class="st3" cx="550.9" cy="246.1" r="32.4"/>
	<path class="st2" d="M625.9,163c2.3,0,4.5,0.7,6.5,2.1c2,1.4,3,3.4,3,6.2v216.3c0,2.7-1.1,4.7-3.2,5.9c-2.1,1.2-4.6,1.7-7.3,1.7
		c-2.5,0-4.9-0.6-7.1-1.7c-2.2-1.2-3.3-3.1-3.3-5.9V182.3H524c-2.5,0-4.3-1-5.4-3c-1.1-2-1.6-4.2-1.6-6.5c0-2.5,0.5-4.8,1.6-6.8
		c1.1-2,2.9-3,5.4-3H625.9z"/>
	<path class="st2" d="M204.4,163c2.5,0,4.3,1,5.4,3c1.1,2,1.6,4.3,1.6,6.8c0,2.3-0.5,4.5-1.6,6.5c-1.1,2-2.9,3-5.4,3h-90.5v205.1
		c0,2.7-1.1,4.7-3.3,5.9c-2.2,1.2-4.6,1.7-7.1,1.7c-2.8,0-5.2-0.6-7.3-1.7c-2.1-1.2-3.2-3.1-3.2-5.9V171.2c0-2.8,1-4.8,3-6.2
		c2-1.4,4.2-2.1,6.5-2.1H204.4z"/>
</g>
</svg>
