<?xml version="1.0" encoding="utf-8"?>
<!-- Generator: Adobe Illustrator 22.0.1, SVG Export Plug-In . SVG Version: 6.00 Build 0)  -->
<svg version="1.1" xmlns="http://www.w3.org/2000/svg" xmlns:xlink="http://www.w3.org/1999/xlink" x="0px" y="0px"
	 viewBox="0 0 1080 1080" style="enable-background:new 0 0 1080 1080;" xml:space="preserve">
<style type="text/css">
	.st0{display:none;}
	.st1{display:inline;}
	.st2{fill:#5DA4B3;}
	.st3{fill:#FFFFFF;}
</style>
<g id="BG" class="st0">
	<rect x="2" y="1" class="st1" width="1080" height="1080"/>
</g>
<g id="logo">
	<circle class="st2" cx="670.2" cy="410.4" r="126.7"/>
	<path class="st3" d="M963.7,85.1c9.1,0,17.6,2.7,25.5,8.1c7.9,5.4,11.8,13.5,11.8,24.2v846.7c0,10.8-4.1,18.4-12.4,23
		c-8.3,4.5-17.8,6.8-28.6,6.8c-9.9,0-19.3-2.3-28-6.8c-8.7-4.6-13.1-12.2-13.1-23V161H564.6c-9.9,0-17-3.9-21.1-11.8
		c-4.1-7.9-6.2-16.4-6.2-25.5c0-9.9,2.1-18.9,6.2-26.7c4.2-7.9,11.2-11.8,21.1-11.8H963.7z"/>
</g>
</svg>
