<?xml version="1.0" encoding="utf-8"?>
<!-- Generator: Adobe Illustrator 22.0.1, SVG Export Plug-In . SVG Version: 6.00 Build 0)  -->
<svg version="1.1" xmlns="http://www.w3.org/2000/svg" xmlns:xlink="http://www.w3.org/1999/xlink" x="0px" y="0px"
	 viewBox="0 0 1080 1080" style="enable-background:new 0 0 1080 1080;" xml:space="preserve">
<style type="text/css">
	.st0{display:none;}
	.st1{display:inline;fill:#FFFFFF;}
	.st2{fill:#1C1C1F;}
	.st3{fill:#5DA4B3;}
</style>
<g id="BG" class="st0">
	<rect x="1" class="st1" width="1080" height="1080"/>
</g>
<g id="logo">
	<path class="st2" d="M96.1,1001c-4,0-7.6-1.2-11-3.5c-3.4-2.3-5.1-5.8-5.1-10.5V620.2c0-4.7,1.8-8,5.4-10c3.6-2,7.7-3,12.4-3
		c4.3,0,8.3,1,12.1,3c3.8,2,5.7,5.3,5.7,10v347.9H269c4.3,0,7.4,1.7,9.2,5.1c1.8,3.4,2.7,7.1,2.7,11c0,4.3-0.9,8.2-2.7,11.6
		c-1.8,3.4-4.8,5.1-9.2,5.1H96.1z"/>
	<path class="st2" d="M465.6,999.7c-18.3,0-35.2-4.8-50.6-14.3c-15.4-9.5-27.9-22.1-37.4-37.7c-9.5-15.6-14.3-32.4-14.3-50.4v-58.7
		c0-18,4.7-34.6,14-49.8c9.3-15.3,21.7-27.6,37.2-36.9c15.4-9.3,32.5-14,51.2-14c18.3,0,35.3,4.6,50.9,13.7
		c15.6,9.2,28.1,21.3,37.4,36.4c9.3,15.1,14,32,14,50.6v58.7c0,17.6-4.7,34.3-14,50.1c-9.3,15.8-21.8,28.5-37.4,38
		C500.9,994.9,483.9,999.7,465.6,999.7z M465.6,967.4c12.6,0,23.9-3.3,33.9-10c10-6.6,18.1-15.3,24.2-26.1
		c6.1-10.8,9.2-22.1,9.2-33.9v-58.7c0-11.5-3-22.4-8.9-32.9c-5.9-10.4-14-18.9-24.2-25.6c-10.2-6.6-21.6-10-34.2-10
		c-12.6,0-23.9,3.3-33.9,10c-10.1,6.6-18.1,15.2-24.2,25.6c-6.1,10.4-9.2,21.4-9.2,32.9v58.7c0,11.8,3,23.2,9.2,33.9
		c6.1,10.8,14.3,19.5,24.5,26.1C442.2,964,453.4,967.4,465.6,967.4z"/>
	<path class="st2" d="M727.9,1000.2c-3.6,0-6.6-0.8-8.9-2.4c-2.3-1.6-4.2-4.4-5.7-8.3l-84-225.7c-0.4-1.1-0.8-2.4-1.3-4
		c-0.5-1.6-0.8-3-0.8-4c0-2.9,1.1-5.5,3.2-7.8c2.2-2.3,4.8-4.2,8.1-5.7c3.2-1.4,6.5-2.2,9.7-2.2c2.5,0,5,0.7,7.5,2.2
		c2.5,1.4,4.1,3.4,4.8,5.9l68.9,191.7l55.5-175c1.1-3.2,2.8-5.6,5.1-7c2.3-1.4,5.3-2.2,8.9-2.2c3.2,0,6.1,0.7,8.6,2.2
		c2.5,1.4,4.3,3.8,5.4,7l53.3,177.2l70.6-193.9c1.4-5.4,5.4-8.1,11.8-8.1c3.2,0,6.5,0.6,9.7,1.9c3.2,1.3,5.9,3.1,8.1,5.4
		c2.2,2.3,3.2,5.1,3.2,8.3c0,1.1-0.3,2.5-0.8,4.3c-0.5,1.8-1,3.1-1.3,3.8l-84,227.8c-1.1,3.2-3,5.5-5.7,6.7
		c-2.7,1.3-5.5,1.9-8.3,1.9c-3.6,0-6.6-0.7-8.9-2.2c-2.3-1.4-4.2-3.4-5.7-5.9l-56-175l-55.5,172.4c-1.1,3.6-3.1,6.3-5.9,8.1
		C734.7,999.3,731.5,1000.2,727.9,1000.2z"/>
	<circle class="st3" cx="856.7" cy="219" r="54.9"/>
	<path class="st2" d="M983.8,78.1c4,0,7.6,1.2,11,3.5c3.4,2.3,5.1,5.8,5.1,10.5v366.8c0,4.7-1.8,8-5.4,10c-3.6,2-7.7,3-12.4,3
		c-4.3,0-8.3-1-12.1-3c-3.8-2-5.7-5.3-5.7-10V111H811c-4.3,0-7.4-1.7-9.2-5.1c-1.8-3.4-2.7-7.1-2.7-11c0-4.3,0.9-8.2,2.7-11.6
		c1.8-3.4,4.8-5.1,9.2-5.1H983.8z"/>
	<path class="st2" d="M269,78.1c4.3,0,7.4,1.7,9.2,5.1c1.8,3.4,2.7,7.3,2.7,11.6c0,3.9-0.9,7.6-2.7,11c-1.8,3.4-4.8,5.1-9.2,5.1
		H115.5v347.9c0,4.7-1.9,8-5.7,10c-3.8,2-7.8,3-12.1,3c-4.7,0-8.8-1-12.4-3c-3.6-2-5.4-5.3-5.4-10V92.1c0-4.7,1.7-8.2,5.1-10.5
		c3.4-2.3,7.1-3.5,11-3.5H269z"/>
</g>
</svg>
